<?xml version="1.0" encoding="UTF-8"?><svg id="Layer_1" xmlns="http://www.w3.org/2000/svg" viewBox="0 0 925 250"><defs><style>.cls-1{fill:#18e898;}.cls-1,.cls-2,.cls-3,.cls-4{opacity:.65;}.cls-2{fill:#27a845;}.cls-3{fill:#edb324;}.cls-4{fill:#39c9c5;}</style></defs><g><path class="cls-1" d="M674.89,150.44v72.01c9.47-3.41,18.26-8.6,25.98-15.37v-56.63h-25.98Z"/><path class="cls-1" d="M674.89,193.88c-8.34,4.81-17.82,7.39-27.71,7.39-14.85,0-28.82-5.78-39.32-16.29-10.5-10.5-16.29-24.46-16.29-39.32s5.78-28.82,16.29-39.32c10.5-10.5,24.47-16.29,39.32-16.29,10.87,0,21.25,3.11,30.16,8.88l18.66-18.66c-14.02-10.51-30.98-16.21-48.82-16.21-21.79,0-42.28,8.49-57.69,23.9-15.41,15.41-23.9,35.9-23.9,57.69s8.49,42.28,23.9,57.69c15.41,15.41,35.9,23.9,57.69,23.9,9.6,0,18.94-1.65,27.71-4.81,9.47-3.41,18.26-8.6,25.98-15.37v-46.91c-2.49,9.3-7.38,17.83-14.37,24.82-3.51,3.51-7.42,6.48-11.61,8.9Z"/></g><g><path class="cls-1" d="M805.81,64.08h-52.87v28.6h52.87c29.27,0,53.09,23.75,53.09,52.94s-23.82,52.94-53.09,52.94h-52.87v28.6h52.87c45.04,0,81.69-36.58,81.69-81.54s-36.65-81.54-81.69-81.54Z"/><polygon class="cls-1" points="781.54 198.65 781.54 92.77 781.54 64.17 752.94 64.17 752.94 92.77 752.94 198.65 752.94 227.25 781.54 227.25 781.54 198.65"/></g><g><polygon class="cls-1" points="148.05 175.83 56.93 175.83 46.21 204.19 76.77 204.19 76.82 204.05 128.16 204.05 128.21 204.19 158.77 204.19 148.05 175.83"/><polygon class="cls-1" points="105.83 64.08 99.19 64.08 79.55 115.95 37.5 227.25 67.74 227.25 117.66 95.4 105.83 64.08"/><polygon class="cls-1" points="167.48 227.25 144.27 165.82 105.68 64.08 99.15 64.08 87.28 95.52 137.24 227.25 167.48 227.25"/></g><g><polygon class="cls-1" points="478.22 64.08 387.88 202.37 414.22 202.37 503.62 64.08 478.22 64.08"/><rect class="cls-1" x="478.22" y="64.08" width="25.4" height="163.17"/><polygon class="cls-1" points="404.47 176.97 387.88 202.37 520.45 202.37 520.45 176.97 404.47 176.97"/></g><g><polygon class="cls-3" points="246.23 198.48 246.23 91.98 246.23 63.21 217.46 63.21 217.46 91.98 217.46 198.48 217.46 227.25 246.23 227.25 246.23 198.48"/><path class="cls-4" d="M323.79,150.3c-2.61,26.95-25.45,48.1-53.15,48.1h-53.18v28.77h53.18c43.57,0,79.32-34.04,81.99-76.87h-28.84Z"/><path class="cls-2" d="M352.65,140.16c-1.97-32.64-23.15-60.18-52.38-71.5v32.2c13.02,8.69,21.98,22.93,23.51,39.3h28.86Z"/></g><rect class="cls-2" x="257.03" y="63.48" width="32.33" height="32.63"/><rect class="cls-2" x="293.98" y="22.75" width="32.33" height="32.63"/></svg>